<?xml version="1.0" encoding="UTF-8" standalone="no" ?>
<svg
 version="1.1"
 xmlns="http://www.w3.org/2000/svg"
 xmlns:xlink="http://www.w3.org/1999/xlink"
 width="260"
 height="310"
 viewBox="0 0 26 31" >

<defs>

<symbol id="dotline">
<circle cy="0" cx="0" r="0.02" fill="#000" />
<circle cy="1" cx="0" r="0.04" fill="#000" />
<circle cy="2" cx="0" r="0.06" fill="#000" />
<circle cy="3" cx="0" r="0.08" fill="#000" />
<circle cy="4" cx="0" r="0.10" fill="#000" />
<circle cy="5" cx="0" r="0.12" fill="#000" />
<circle cy="6" cx="0" r="0.14" fill="#000" />
<circle cy="7" cx="0" r="0.16" fill="#000" />
<circle cy="8" cx="0" r="0.18" fill="#000" />
<circle cy="9" cx="0" r="0.20" fill="#000" />
<circle cy="10" cx="0" r="0.22" fill="#000" />
<circle cy="11" cx="0" r="0.24" fill="#000" />
<circle cy="12" cx="0" r="0.26" fill="#000" />
<circle cy="13" cx="0" r="0.28" fill="#000" />
<circle cy="14" cx="0" r="0.30" fill="#000" />
<circle cy="15" cx="0" r="0.32" fill="#000" />
<circle cy="16" cx="0" r="0.34" fill="#000" />
<circle cy="17" cx="0" r="0.36" fill="#000" />
<circle cy="18" cx="0" r="0.38" fill="#000" />
<circle cy="19" cx="0" r="0.40" fill="#000" />
<circle cy="20" cx="0" r="0.42" fill="#000" />
<circle cy="21" cx="0" r="0.44" fill="#000" />
<circle cy="22" cx="0" r="0.46" fill="#000" />
</symbol>

<clipPath id="doties">
<rect x="0.45" y="0.45" width="12" height="30" />
</clipPath>

<linearGradient id="exp2" x1="0" y1="0" x2="0" y2="1" >
<stop stop-color="#eee" offset="0%" />
<stop stop-color="#333" offset="100%" />
</linearGradient>

</defs>

<rect id="bg" width="26" height="31" fill="#fff" />

<g clip-path="url(#doties)">
<g transform="rotate(15) translate(0,-8) scale(2)" >
<use xlink:href="#dotline" transform="translate(0,0)" />
<use xlink:href="#dotline" transform="translate(0.866025404,0.5)" />
<use xlink:href="#dotline" transform="translate(1.732050808,-1)" />
<use xlink:href="#dotline" transform="translate(2.598076212,-0.5)" />
<use xlink:href="#dotline" transform="translate(3.464101616,-1)" />
<use xlink:href="#dotline" transform="translate(4.33012702,-0.5)" />
<use xlink:href="#dotline" transform="translate(5.196152424,-1)" />
<use xlink:href="#dotline" transform="translate(6.062177828,-1.5)" />
<use xlink:href="#dotline" transform="translate(6.928203232,-1)" />
<use xlink:href="#dotline" transform="translate(7.794228636,-1.5)" />
<use xlink:href="#dotline" transform="translate(8.66025404,-2)" />
<use xlink:href="#dotline" transform="translate(9.526279444,-2.5)" />
<use xlink:href="#dotline" transform="translate(10.392304848,-2)" />
<use xlink:href="#dotline" transform="translate(11.258330252,-2.5)" />
<use xlink:href="#dotline" transform="translate(12.124355656,-2)" />
<use xlink:href="#dotline" transform="translate(12.99038106,-2.5)" />
</g>
</g>
<rect x="0.45" y="0.45" width="12" height="30" style="fill:none; stroke:#000; stroke-width:0.1px" />
<rect x="13.45" y="0.45" width="12" height="30" style="fill:url(#exp2); stroke:#000; stroke-width:0.1px" />
</svg>